<svg width="108" height="20" viewBox="0 0 108 20" fill="none" xmlns="http://www.w3.org/2000/svg">
<path d="M2.94052 2.0144L13.4085 1.70292C13.7719 2.86726 13.7088 3.95744 13.2194 4.97346L5.94408 5.20707L5.72159 8.92258L11.6842 8.81134C12.2478 9.8941 12.2071 10.9138 11.5618 11.8705L5.47686 12.1264L5.07638 18.4116C3.65989 19.0197 2.44734 19.0049 1.43874 18.3671L2.41768 2.63736C2.49926 2.34813 2.67354 2.14047 2.94052 2.0144ZM15.7343 2.71523L16.9246 1.95878C20.6179 1.61022 23.1987 1.56201 24.6671 1.81416C26.1355 2.0589 27.0663 2.73748 27.4593 3.84991C27.8598 4.96233 27.8784 6.46041 27.515 8.34412C27.1516 10.2278 25.7796 11.4663 23.399 12.0596L27.337 17.1434C26.6102 18.6044 25.3939 19.0753 23.6882 18.5562L19.7836 12.894L18.482 13.0274L17.9592 18.2892C16.4389 18.8232 15.2263 18.7045 14.3216 17.9333L15.7343 2.71523ZM23.9997 5.65204C23.666 4.93267 22.09 4.73985 19.2719 5.07358L18.7935 9.66791C21.8564 9.46026 23.5733 8.91887 23.9441 8.04376C24.3149 7.16124 24.3334 6.364 23.9997 5.65204ZM28.428 18.2002L29.9298 1.83641C31.0571 1.56943 32.2733 1.62505 33.5786 2.00327L32.2659 18.3671C30.753 18.7972 29.4737 18.7416 28.428 18.2002ZM35.4706 2.0144L45.9386 1.70292C46.302 2.86726 46.2389 3.95744 45.7494 4.97346L38.4742 5.20707L38.2739 8.05489L44.2477 7.93252C44.8039 9.01528 44.7594 10.0387 44.1142 11.0028L38.0292 11.2587L37.7288 14.7072L45.1932 14.4847C45.8088 15.7974 45.7235 17.0285 44.9374 18.178L34.5362 18.5896C34.2173 18.5303 34.0207 18.2966 33.9466 17.8888L34.9478 2.63736C35.0293 2.34813 35.2036 2.14047 35.4706 2.0144ZM47.8083 2.44825C48.3349 1.72146 49.3954 1.56572 50.9899 1.98103L56.285 10.9583L56.819 2.19239C57.9611 1.63617 59.0587 1.64359 60.1118 2.21464L59.1551 18.0779C58.3987 18.7602 57.3678 18.8417 56.0626 18.3226L51.09 9.24519L50.467 18.3449C48.8726 18.7527 47.6674 18.6637 46.8516 18.0779L47.8083 2.44825ZM61.0138 3.27144L61.1917 1.93653L62.3042 1.68067L66.5759 1.80304C70.818 2.5669 72.9242 5.16628 72.8945 9.60116C72.7981 11.8631 72.2567 13.7765 71.2703 15.3413C70.0541 17.4252 66.9615 18.4672 61.9927 18.4672L60.7245 18.1112L60.4909 16.5761L61.0138 3.27144ZM64.4623 5.15145L64.0173 14.9519C65.9381 15.078 67.2916 14.748 68.0777 13.9619C68.8638 13.1758 69.3088 11.9484 69.4126 10.2797C69.5238 8.60368 69.3051 7.33922 68.7563 6.48636C68.2149 5.62608 66.7835 5.18111 64.4623 5.15145Z" fill="black"/>
<rect x="74.7643" y="0.778809" width="32.4089" height="18.4424" rx="1.05452" fill="#0A42FC"/>
<path d="M79.5775 5.49355L80.3407 5.00852C82.7087 4.78503 84.3635 4.75412 85.3051 4.91579C86.2466 5.07271 86.8434 5.50781 87.0954 6.22109C87.3522 6.93436 87.3593 7.94721 87.1168 9.25964C86.879 10.5673 85.9969 11.409 84.4705 11.7846L82.1595 12.3196L81.325 12.4123L81.004 15.4794C80.0292 15.8218 79.2517 15.7457 78.6716 15.2511L79.5775 5.49355ZM84.8771 7.37659C84.6631 6.91534 83.6526 6.79171 81.8457 7.00569L81.5176 10.2582C83.4814 10.1251 84.5846 9.72564 84.8272 9.05992C85.0744 8.3942 85.0911 7.83309 84.8771 7.37659ZM90.5776 4.873C91.3289 4.40224 92.0398 4.3737 92.7103 4.7874L95.5634 15.0586C94.9119 15.4865 94.0655 15.6007 93.0241 15.4009L92.5106 13.4894L89.8643 13.8175L89.2081 15.7433C88.1477 15.886 87.3583 15.7362 86.84 15.2939L90.5776 4.873ZM92.1111 11.4922L91.4906 8.18973L90.3707 11.699L92.1111 11.4922ZM94.9229 5.60054C95.4031 5.01565 96.1544 4.7565 97.1768 4.82307L98.8815 8.50357L101.128 4.86586C102.136 4.81356 102.833 5.04181 103.218 5.55061L99.8445 10.5435L99.6376 15.5721C98.7722 15.8622 98.009 15.8574 97.348 15.5579L97.5406 10.4865L94.9229 5.60054Z" fill="white"/>
</svg>
