<svg width="40" height="14" viewBox="0 0 40 14" fill="none" xmlns="http://www.w3.org/2000/svg">
<path fill-rule="evenodd" clip-rule="evenodd" d="M11.8333 0.887912L8.36667 9.28539L7.01667 2.11954C6.91667 1.44774 6.35 0.871917 5.56667 0.871917H0V1.2558C1.15 1.44774 2.21667 1.83163 3.16667 2.31149C3.55 2.50343 3.81667 2.90331 3.93333 3.36717L6.53333 13.3002H10L15.2 0.887912H11.8333Z" fill="#D8D8D8"/>
<path fill-rule="evenodd" clip-rule="evenodd" d="M16.5333 0.887912L13.85 13.3002H17.1167L19.8167 0.887912H16.5333Z" fill="#D8D8D8"/>
<path fill-rule="evenodd" clip-rule="evenodd" d="M24.0333 4.32688C24.1333 3.65508 24.7 3.2712 25.3833 3.2712C26.4333 3.17523 27.6 3.36717 28.55 3.84702L29.1333 1.17583C28.1667 0.791941 27.1167 0.599998 26.15 0.599998C22.9833 0.599998 20.6667 2.31148 20.6667 4.71077C20.6667 6.51822 22.3 7.47794 23.45 8.05376C24.7 8.62959 25.1833 9.01348 25.0833 9.57331C25.0833 10.437 24.1167 10.8209 23.1667 10.8209C22.0167 10.8209 20.85 10.533 19.8 10.0532L19.2167 12.7244C20.3833 13.2042 21.6333 13.3962 22.7833 13.3962C26.3333 13.4921 28.55 11.7806 28.55 9.18942C28.5667 5.9424 24.0333 5.75045 24.0333 4.32688Z" fill="#D8D8D8"/>
<path fill-rule="evenodd" clip-rule="evenodd" d="M37.4 0.887912H34.6167C34.0333 0.887912 33.4667 1.2718 33.2667 1.84762L28.4667 13.3002H31.8333L32.5 11.4927H36.6333L37.0167 13.3002H40L37.4 0.887912ZM33.3667 8.90151L35.1 4.23091L36.0667 8.90151H33.3667Z" fill="#D8D8D8"/>
</svg>
